<svg xmlns="http://www.w3.org/2000/svg" version="1.1" xmlns:xlink="http://www.w3.org/1999/xlink" xmlns:svgjs="http://svgjs.dev/svgjs" width="1440" height="560" preserveAspectRatio="none" viewBox="0 0 1440 560"><g mask="url(&quot;#SvgjsMask1015&quot;)" fill="none"><rect width="1440" height="560" x="0" y="0" fill="#0e2a47"></rect><path d="M403.444,263.845C431.206,263.569,456.299,247.652,469.79,223.387C482.908,199.793,482.961,170.277,467.94,147.846C454.292,127.466,427.954,125.246,403.444,124.317C376.384,123.292,345.176,120.264,329.89,142.616C313.3,166.874,319.526,199.605,334.771,224.731C349.417,248.87,375.21,264.126,403.444,263.845" fill="rgba(28, 83, 142, 0.4)" class="triangle-float1"></path><path d="M555.3091269893449 195.4672049952762L397.8487732533331 156.2079294712956 358.5894977293525 313.6682832073074 516.0498514653643 352.927558731288z" fill="rgba(28, 83, 142, 0.4)" class="triangle-float2"></path><path d="M795.0811564484845 324.45485813628125L844.4491973640003 202.26466908737052 722.2590083150895 152.89662817185484 672.8909673995738 275.08681722076557z" fill="rgba(28, 83, 142, 0.4)" class="triangle-float3"></path><path d="M122.232,404.803C153.051,406.183,186.506,401.425,203.531,375.698C222.056,347.705,220.525,310.772,203.673,281.741C186.889,252.826,155.665,235.542,122.232,235.644C88.976,235.745,57.038,252.754,41.646,282.234C27.194,309.913,35.484,342.85,52.638,368.941C68.005,392.313,94.289,403.552,122.232,404.803" fill="rgba(28, 83, 142, 0.4)" class="triangle-float3"></path><path d="M509.934,551.006C539.729,553.036,564.071,529.53,578.713,503.502C593.034,478.046,596.569,447.49,582.597,421.84C568.026,395.09,540.354,375.655,509.934,377.235C481.533,378.71,461.153,402.93,449.262,428.764C439.304,450.399,445.086,473.785,455.674,495.119C468.046,520.047,482.169,549.114,509.934,551.006" fill="rgba(28, 83, 142, 0.4)" class="triangle-float2"></path><path d="M571.204759614523 195.98527196653058L692.8544369812895 122.89077151943222 619.7599365341912 1.2410941526657666 498.11025916742466 74.33559459976412z" fill="rgba(28, 83, 142, 0.4)" class="triangle-float2"></path><path d="M1375.1742946724899 172.68697188472743L1397.017786915075 91.1659490206632 1293.6532718084256 150.84347964214237z" fill="rgba(28, 83, 142, 0.4)" class="triangle-float3"></path><path d="M871.509,504.723C899.613,505.507,925.792,490.626,940.334,466.564C955.405,441.627,958.645,410.163,943.816,385.082C929.215,360.386,900.137,348.291,871.509,350.154C845.784,351.828,826.349,370.993,813.854,393.541C801.814,415.268,797.594,440.85,809.029,462.901C821.394,486.747,844.658,503.974,871.509,504.723" fill="rgba(28, 83, 142, 0.4)" class="triangle-float2"></path><path d="M1071.828,267.48C1096.892,267.646,1121.751,259.547,1135.873,238.839C1152.014,215.171,1159.584,184.273,1145.636,159.25C1131.404,133.716,1100.98,121.773,1071.828,123.935C1045.948,125.854,1027.305,146.199,1014.821,168.95C1002.915,190.648,996.842,216.577,1009.237,238C1021.616,259.395,1047.111,267.316,1071.828,267.48" fill="rgba(28, 83, 142, 0.4)" class="triangle-float3"></path></g><defs><mask id="SvgjsMask1015"><rect width="1440" height="560" fill="#ffffff"></rect></mask><style>
                @keyframes float1 {
                    0%{transform: translate(0, 0)}
                    50%{transform: translate(-10px, 0)}
                    100%{transform: translate(0, 0)}
                }

                .triangle-float1 {
                    animation: float1 5s infinite;
                }

                @keyframes float2 {
                    0%{transform: translate(0, 0)}
                    50%{transform: translate(-5px, -5px)}
                    100%{transform: translate(0, 0)}
                }

                .triangle-float2 {
                    animation: float2 4s infinite;
                }

                @keyframes float3 {
                    0%{transform: translate(0, 0)}
                    50%{transform: translate(0, -10px)}
                    100%{transform: translate(0, 0)}
                }

                .triangle-float3 {
                    animation: float3 6s infinite;
                }
            </style></defs></svg>