<svg xmlns="http://www.w3.org/2000/svg" version="1.1" xmlns:xlink="http://www.w3.org/1999/xlink" xmlns:svgjs="http://svgjs.dev/svgjs" width="1440" height="560" preserveAspectRatio="none" viewBox="0 0 1440 560"><g mask="url(&quot;#SvgjsMask1012&quot;)" fill="none"><rect width="1440" height="560" x="0" y="0" fill="url(&quot;#SvgjsLinearGradient1013&quot;)"></rect><path d="M66.30496626079838 99.52343217592787L30.891093616531748-24.42512207900532-48.79011983306816 55.25609137059459z" fill="rgba(28, 83, 142, 0.4)" class="triangle-float2"></path><path d="M604.3234205342969 460.32814467457433L738.619049978457 493.81180575445455 637.8070816141772 326.0325152304142z" fill="rgba(28, 83, 142, 0.4)" class="triangle-float2"></path><path d="M357.1089222394732-62.15152274796793L278.81804512404375-11.308832671114814 329.66073520089685 66.98204444431462 407.9516123163263 16.13935436746152z" fill="rgba(28, 83, 142, 0.4)" class="triangle-float3"></path><path d="M1516.5006715696795 134.6484325026716L1496.781588372455 33.20254384913699 1354.4722969907655 113.50411297174125z" fill="rgba(28, 83, 142, 0.4)" class="triangle-float2"></path><path d="M546.2315330404681 397.3566821349238L596.8895470687987 302.0828144699567 428.6497385571827 273.7327272599443z" fill="rgba(28, 83, 142, 0.4)" class="triangle-float1"></path><path d="M194.03108298489718 179.09143998367708L204.6258008768372 119.00580901913933 109.19999548406058 133.1565476634982z" fill="rgba(28, 83, 142, 0.4)" class="triangle-float1"></path><path d="M774.22 276.99 a138.21 138.21 0 1 0 276.42 0 a138.21 138.21 0 1 0 -276.42 0z" fill="rgba(28, 83, 142, 0.4)" class="triangle-float3"></path><path d="M1152.41 409.75 a125.71 125.71 0 1 0 251.42 0 a125.71 125.71 0 1 0 -251.42 0z" fill="rgba(28, 83, 142, 0.4)" class="triangle-float1"></path><path d="M413.11021671681624 236.27242925078588L398.46761521717406 375.5874764763279 537.7826624427161 390.2300779759701 552.4252639423582 250.91503075042806z" fill="rgba(28, 83, 142, 0.4)" class="triangle-float1"></path><path d="M422.16 293.29 a137.09 137.09 0 1 0 274.18 0 a137.09 137.09 0 1 0 -274.18 0z" fill="rgba(28, 83, 142, 0.4)" class="triangle-float2"></path><path d="M-81.71 473.53 a139.52 139.52 0 1 0 279.04 0 a139.52 139.52 0 1 0 -279.04 0z" fill="rgba(28, 83, 142, 0.4)" class="triangle-float1"></path></g><defs><mask id="SvgjsMask1012"><rect width="1440" height="560" fill="#ffffff"></rect></mask><linearGradient x1="15.28%" y1="-39.29%" x2="84.72%" y2="139.29%" gradientUnits="userSpaceOnUse" id="SvgjsLinearGradient1013"><stop stop-color="#0e2a47" offset="0"></stop><stop stop-color="rgba(1, 21, 48, 1)" offset="1"></stop></linearGradient><style>
                @keyframes float1 {
                    0%{transform: translate(0, 0)}
                    50%{transform: translate(-10px, 0)}
                    100%{transform: translate(0, 0)}
                }

                .triangle-float1 {
                    animation: float1 5s infinite;
                }

                @keyframes float2 {
                    0%{transform: translate(0, 0)}
                    50%{transform: translate(-5px, -5px)}
                    100%{transform: translate(0, 0)}
                }

                .triangle-float2 {
                    animation: float2 4s infinite;
                }

                @keyframes float3 {
                    0%{transform: translate(0, 0)}
                    50%{transform: translate(0, -10px)}
                    100%{transform: translate(0, 0)}
                }

                .triangle-float3 {
                    animation: float3 6s infinite;
                }
            </style></defs></svg>