<?xml version="1.0" encoding="utf-8" ?>
<svg xmlns="http://www.w3.org/2000/svg" xmlns:xlink="http://www.w3.org/1999/xlink" width="600" height="108">
	<path fill="#E27863" d="M371.088 44.3413L389.373 44.3546L389.402 44.3958C390.449 45.9149 390.156 60.3996 389.726 62.7805L388.542 63.34C386.43 64.0162 382.84 63.4054 380.53 63.3823C377.115 63.3482 373.704 63.5323 370.283 63.4783C371.013 62.5481 370.878 60.7338 370.945 59.596C371.238 54.5661 370.486 49.2922 371.088 44.3413Z"/>
	<path fill="#3F425D" d="M515.517 58.4938C519.484 58.474 523.452 58.6257 527.414 58.6099C529.712 58.6007 532.055 58.2316 534.335 58.5998L534.627 59.0649C535.467 60.5621 535.592 103.916 534.625 107.115C534.516 107.475 534.306 107.761 534.019 108L515.682 108L515.962 107.506C516.32 106.802 516.228 105.774 516.247 104.989C516.297 102.966 516.317 100.941 516.333 98.9172C516.41 88.8299 516.343 78.7434 516.252 68.6564C516.233 66.5277 516.206 64.399 516.203 62.2702C516.202 61.4267 516.336 60.0992 516.055 59.3284C515.942 59.02 515.738 58.7347 515.517 58.4938Z"/>
	<path fill="#E27863" d="M534.617 0L549.206 0L552.769 0C553.865 0.969865 553.757 3.26987 553.84 4.64342C554.057 8.21268 554.034 11.8763 553.808 15.4443C553.742 16.4914 553.809 17.8306 553.073 18.6433L553.025 18.6938C548.613 17.7269 542.679 17.7321 538.227 18.4898C537.141 18.6747 536.182 19.1545 535.148 19.3663C535.229 20.6701 534.998 21.8455 534.997 23.122C534.996 25.4631 535.656 28.4976 534.577 30.6925L552.909 30.6106C554.623 32.7233 554.058 45.1443 553.732 48.2384C553.683 48.7028 553.482 49.0686 553.251 49.4646L515.146 49.9993C516.66 48.1205 516.198 45.0952 516.197 42.8081C516.197 38.7869 516.187 34.7658 516.182 30.7446C516.172 21.7742 516.424 11.3593 523.911 5.09503C525.965 3.37694 528.28 2.37682 530.806 1.55623C532.016 1.16315 533.502 0.906316 534.611 0.325017L534.617 0ZM534.617 0L534.611 0.325017C536.529 0.422397 548.353 0.715302 549.206 0L534.617 0Z"/>
	<path fill="#E27863" d="M534.617 0L549.206 0C548.353 0.715302 536.529 0.422397 534.611 0.325017L534.617 0Z"/>
	<path fill="#E27863" d="M221.899 58.5426L241.13 58.3113L241.178 58.3737C242.053 59.5279 241.726 61.6501 241.712 63.0528C241.678 66.4365 241.638 69.8203 241.616 73.2041C241.589 77.2421 241.185 82.7835 243.873 86.1061C245.24 87.7946 248.006 88.7586 250.076 89.0774C254.918 89.8232 260.234 89.4716 265.124 89.4679C273.082 89.4618 281.044 89.4846 289.002 89.4199C292.081 89.3948 295.263 88.948 298.324 89.2576C299.464 90.6882 299.048 103.359 298.774 105.695C298.657 106.69 298.474 107.229 297.841 108L248.424 108C247.908 107.117 245.466 106.811 244.414 106.457C243.011 105.985 241.475 105.318 240.125 104.703C238.072 103.768 235.558 102.311 233.767 100.943C230.377 98.3538 227.409 94.3887 225.581 90.5761C224.254 87.8067 223.233 84.4438 222.894 81.381C222.592 78.6572 222.61 75.8166 222.684 73.0806C222.786 69.2946 223.083 65.4814 222.775 61.6994C222.682 60.5541 222.684 59.4636 221.899 58.5426Z"/>
	<path fill="#3F425D" d="M365.911 0L420.936 0L421.68 0.838462C422.865 4.66876 422.374 9.68311 422.241 13.6898C422.202 14.8732 422.334 16.6792 421.9 17.7579C421.755 18.1168 421.632 18.2243 421.286 18.3654C420.579 18.6539 419.598 18.5281 418.841 18.5314C416.864 18.5398 414.888 18.5428 412.911 18.5451C403.765 18.556 394.613 18.6017 385.467 18.5094C380.415 18.4584 375.343 17.9718 370.295 18.4156C367.806 18.6344 364.149 18.9337 362.106 20.4027C360.411 21.6213 359.027 23.2782 358.332 25.2588C357.038 28.9475 357.341 33.5405 357.321 37.4201C357.291 43.1374 357.342 48.8559 357.352 54.5734C357.356 56.5031 357.865 61.6951 356.662 63.0865L356.615 63.1387L337.892 63.4417C339.033 60.9818 338.619 57.6595 338.607 54.9835C338.584 49.7783 338.53 44.5724 338.547 39.3671C338.576 30.7827 338.89 22.9331 343.173 15.2268C345.882 10.3521 349.52 6.7603 354.462 4.18072C356.807 2.95691 359.545 2.21015 362.081 1.48091C363.111 1.18469 365.389 0.883483 365.911 0Z"/>
	<path fill="#3F425D" d="M402.995 44.5551C406.509 44.4532 409.986 44.5838 413.495 44.5725C415.519 44.566 420.271 43.8388 421.839 45.0732C422.677 48.3244 422.191 52.564 422.218 55.9483C422.316 67.7779 423.651 82.1737 417.394 92.7343C412.578 100.864 405.673 104.539 396.714 106.834C395.25 107.209 393.538 107.343 392.171 108L338.142 108C339.14 106.591 338.919 92.5127 338.522 90.3422C338.45 89.9517 338.301 89.557 338.135 89.1968C350.589 89.2755 363.047 89.2219 375.502 89.2153C379.228 89.2134 382.955 89.2109 386.681 89.2051C389.144 89.2012 391.743 89.3152 394.177 88.9042C396.346 88.538 398.447 87.6897 400.027 86.1324C403.71 82.5003 403.545 76.2658 403.559 71.4674C403.57 67.486 404.097 46.6919 402.995 44.5551Z"/>
	<path fill="#3F425D" d="M225.838 30.878C232.839 30.3297 240.008 30.8618 247.031 30.8458C251.858 30.8348 256.682 30.7313 261.509 30.7359C264.248 30.7386 267.076 30.6275 269.794 31.0021C275.213 31.7487 280.697 33.1354 285.31 36.1579C292.313 40.7462 296.182 47.7843 297.843 55.8301C298.833 60.6248 298.608 65.8746 298.636 70.7556C298.651 73.4288 299.202 77.3688 297.683 79.663L263.892 79.5493L249.803 79.705C250.123 79.3965 250.401 79.0153 250.531 78.5854C251.249 76.1961 251.321 63.3709 250.091 61.1807L279.597 60.9121C279.842 60.509 279.977 60.0847 279.925 59.6098C279.582 56.4482 278.616 53.4732 276.061 51.4139C274.659 50.284 272.887 49.6959 271.124 49.4501C264.732 48.5592 257.851 49.2336 251.398 49.2016C245.287 49.1713 239.176 49.0792 233.064 49.0893C229.379 49.0954 225.634 49.0065 221.967 49.3915C222.346 48.8982 222.675 48.3915 222.829 47.7818C223.595 44.7348 223.735 33.6559 222.309 31.2259L225.838 30.878Z"/>
	<path fill="#3F425D" d="M175.583 0L193.869 0C194.695 0.744797 194.754 1.92777 194.811 2.96946C195.125 8.76779 194.812 14.7312 194.79 20.5478C194.779 23.5269 195.109 26.7234 194.894 29.6686C194.863 30.0913 194.7 30.5578 194.467 30.9098C198.204 30.7128 201.96 30.7196 205.702 30.7496C207.928 30.7675 210.283 30.6295 212.452 31.1555C213.843 32.5885 213.534 40.6918 213.501 42.7378C213.477 44.2626 213.696 48.0832 212.713 49.2057L194.236 49.302C194.846 50.5278 194.823 51.9996 194.856 53.3426C194.923 56.0411 194.845 58.7588 194.821 61.4587C194.756 68.7928 194.604 76.1365 194.652 83.4704C194.664 85.2572 194.904 87.0437 195.081 88.8206C200.836 90.0218 206.689 89.6313 212.515 89.7927C213.966 91.8707 213.517 103.938 213.038 106.771C212.961 107.225 212.712 107.624 212.459 108L197.151 108C196.988 107.492 196.68 107.437 196.175 107.298C194.517 106.839 192.811 106.726 191.157 106.168C183.705 103.655 178.436 97.9538 176.973 90.131C176.229 86.1541 176.282 82.1639 176.275 78.1343C176.268 73.5359 176.264 68.9375 176.261 64.3392C176.25 49.0913 176.233 33.8431 176.259 18.5952C176.265 15.4635 177.013 2.02192 175.583 0Z"/>
	<path fill="#3F425D" d="M562.614 0L580.602 0L599.487 0L599.781 0.493528C600.116 1.12359 600.369 29.5286 599.938 30.9027L599.797 31.2471L599.595 31.6291L599.827 32.1194C600.274 33.1735 600.297 47.0326 599.861 48.1073L599.804 48.2337L599.609 48.6234L599.833 49.1705C600.374 50.6364 600.247 89.1269 599.831 89.9869L599.802 90.0446L599.605 90.4075C600.229 91.77 600.033 93.4791 600.043 94.9592C600.062 97.7819 600.065 100.605 600.049 103.428C600.043 104.433 600.265 106.431 599.921 107.293L599.744 107.631L599.487 108L582.917 108L582.749 107.624L576.284 105.731C570.218 103.572 565.742 97.5754 563.988 91.5816C562.333 85.9254 562.754 79.8198 562.962 74.0135C563.112 69.8042 563.135 65.6026 563.141 61.3911C563.165 44.9181 563.234 28.4392 563.019 11.9674C562.984 9.33289 562.995 6.70763 563.053 4.07361C563.075 3.05261 563.335 1.41823 562.885 0.49588L562.614 0ZM599.609 48.6234C598.1 49.7492 583.884 49.3106 581.143 49.2844C582.63 51.9901 581.562 77.2898 581.509 82.1502C581.489 83.9868 582.012 86.9754 581.527 88.6484L581.365 89.1295C583.051 89.3672 584.783 89.6562 586.488 89.6531C590.043 89.6467 596.666 88.1325 599.605 90.4075L599.802 90.0446L599.831 89.9869C600.247 89.1269 600.374 50.6364 599.833 49.1705L599.609 48.6234ZM580.602 0C581.392 0.72808 581.464 1.79695 581.508 2.80801C581.738 8.10381 581.567 13.4759 581.595 18.7784C581.614 22.3989 582.434 27.4048 581.237 30.786C584.649 30.7544 588.063 30.7201 591.475 30.7416C594.205 30.7587 596.987 30.6999 599.595 31.6291L599.797 31.2471L599.938 30.9027C600.369 29.5286 600.116 1.12359 599.781 0.493528L599.487 0L580.602 0Z"/>
	<path fill="#3F425D" d="M431.016 108L431.06 107.932C431.885 106.632 431.21 102.765 431.211 101.048C431.215 94.6021 431.249 88.1561 431.259 81.7101C431.266 76.6945 431.058 71.6572 431.641 66.665C432.78 56.9057 437.279 47.054 444.817 40.604C449.287 36.7785 455.333 33.7319 461.103 32.3644C463.887 31.7047 466.951 31.2917 469.807 31.0967C477.586 30.5654 485.318 30.8324 493.103 30.8037C495.82 30.7937 498.537 30.7581 501.254 30.7382C502.812 30.7268 504.708 30.4959 506.141 31.1707C506.988 32.3953 507.022 34.4132 507.053 35.8475C507.13 39.4543 507.065 43.0746 507.053 46.6825C507.021 55.759 507.711 65.6091 506.085 74.5476C504.322 84.2443 499.088 94.2394 490.835 99.9246C485.742 103.433 480.075 105.28 474.116 106.701C472.49 107.089 470.099 107.147 468.701 108L431.016 108ZM472.001 49.3171C466.124 50.0022 459.223 50.5443 455.276 55.5409C449.511 62.8387 449.428 72.231 449.667 81.1092C449.737 83.7275 450.09 86.6383 449.52 89.1971L465.466 89.1646C471.859 88.9578 478.033 88.4617 482.677 83.5047C488.026 77.7943 488.225 68.8496 488.283 61.4809C488.309 58.1025 488.375 54.6727 488.25 51.2979C488.225 50.6201 488.111 50.1311 487.682 49.5864L472.001 49.3171Z"/>
	<path fill="#3F425D" d="M91.6502 108C90.724 101.498 91.1894 94.8649 91.2417 88.3169C91.357 73.8864 90.0591 58.615 99.2733 46.3331C105.858 37.5564 116.22 32.8622 126.866 31.361C135.011 30.2125 143.408 30.8369 151.611 30.7884C154.732 30.77 157.85 30.7263 160.971 30.7558C162.626 30.7715 164.401 30.6451 166 31.1015C167.392 32.6534 167.026 38.0685 167.061 40.1557C167.214 49.0851 167.337 58.1484 166.84 67.0665C166.185 78.8156 162.641 89.771 153.622 97.8057C149.107 101.828 142.281 104.589 136.439 106.008C134.401 106.504 130.168 106.819 128.557 108L91.6502 108ZM131.956 49.3168C126.222 49.959 119.257 50.5254 115.386 55.3637C112.757 58.6496 111.182 62.2623 110.353 66.3722C109.397 71.1175 109.538 76.2839 109.628 81.1013C109.664 83.0087 109.903 85.052 109.716 86.9483C109.634 87.7744 109.497 88.6162 108.886 89.2291L124.45 89.1226C131.634 88.8336 138.402 87.7791 143.533 82.2264C148.173 77.2052 148.188 68.5628 148.264 62.1171C148.305 58.6385 148.359 55.1214 148.212 51.6462C148.179 50.8633 148.148 50.2771 147.656 49.6291L131.956 49.3168Z"/>
	<path fill="#3F425D" d="M63.946 0L81.6657 0C82.5322 12.2933 81.9329 24.9423 81.9181 37.2752C81.9101 43.9836 81.9464 50.692 81.9434 57.4004C81.9405 63.6593 82.0069 70.4271 80.6935 76.5731C79.3183 83.0083 76.4375 89.1194 72.0992 94.0986C67.1399 99.7905 60.1617 103.724 52.9007 105.713C50.1544 106.465 47.0491 106.959 44.4372 108L0 108L0 89.6533C3.69341 89.3135 7.5014 89.444 11.2118 89.4389C17.053 89.4308 22.8949 89.4257 28.7361 89.46C37.5515 89.5118 46.0407 90.6208 54.1139 86.1511C58.2242 83.8754 60.72 79.8333 61.9943 75.4179C63.1578 71.3867 63.3637 66.8732 63.4896 62.6934C63.6774 56.4607 63.5158 50.1989 63.4874 43.9628C63.4413 33.8693 63.4151 23.7756 63.4 13.682C63.3936 9.43682 62.7919 4.04922 63.946 0Z"/>
</svg>
