<?xml version="1.0" encoding="utf-8"?>
<svg viewBox="0 0 400 400" width="400px" height="400px" xmlns="http://www.w3.org/2000/svg">
  <path fill="#E27863" d="M 276.019 157.318 L 313.975 157.346 L 314.037 157.432 C 316.209 160.585 314.71 196.892 314.71 196.892 C 314.71 196.892 281.451 197.155 274.347 197.044 C 275.863 195.112 274.771 167.595 276.019 157.318 Z" style="" transform="matrix(1, 0, 0, 1, 5.684341886080802e-14, 1.7763568394002505e-15)"/>
  <path fill="#3F425D" d="M 265.028 67.404 L 377.449 68.34 L 378.994 70.08 C 381.451 78.029 380.434 88.437 380.155 96.757 C 380.078 99.21 380.352 102.959 379.451 105.202 C 379.147 105.945 378.894 106.169 378.176 106.459 C 376.706 107.063 374.672 106.799 373.098 106.805 C 368.996 106.824 364.895 106.829 360.789 106.834 C 341.804 106.859 322.805 106.949 303.821 106.758 C 293.334 106.656 282.805 105.647 272.327 106.564 C 267.163 107.021 259.568 107.639 255.33 110.69 C 251.811 113.22 248.937 116.66 247.496 120.771 C 244.811 128.426 245.437 137.962 245.396 146.016 C 245.333 157.881 245.441 169.755 245.463 181.621 C 245.47 185.627 246.525 196.403 244.028 199.293 L 243.93 199.401 L 205.931 200.028 C 206.805 196.421 205.813 188.788 206.549 182.471 C 207.799 171.74 206.391 160.863 206.424 150.056 C 206.486 132.238 207.138 115.942 216.028 99.946 C 221.653 89.828 229.204 82.372 239.462 77.017 C 244.328 74.475 248.211 71.126 253.475 69.612 C 255.613 68.995 265.028 67.404 265.028 67.404 Z" style="" transform="matrix(1, 0, 0, 1, 5.684341886080802e-14, 1.7763568394002505e-15)"/>
  <path fill="#3F425D" d="M 340.206 160.825 C 347.499 160.613 354.719 160.888 362.002 160.863 C 366.202 160.85 376.067 159.339 379.321 161.9 C 381.062 168.651 380.053 177.453 380.111 184.477 C 380.314 209.033 383.083 238.913 370.097 260.837 C 360.1 277.713 345.764 285.34 327.169 290.107 C 324.131 290.882 320.577 291.16 317.737 292.526 L 205.585 292.526 C 207.657 289.6 207.198 260.376 206.375 255.872 C 206.225 255.058 205.914 254.24 205.569 253.493 C 231.421 253.655 257.281 253.547 283.137 253.531 C 290.871 253.525 298.607 253.521 306.341 253.509 C 311.455 253.502 316.848 253.737 321.901 252.886 C 326.406 252.127 330.766 250.362 334.043 247.132 C 341.692 239.594 341.346 226.653 341.377 216.689 C 341.4 208.427 342.494 165.263 340.206 160.825 Z" style="" transform="matrix(1, 0, 0, 1, 5.684341886080802e-14, 1.7763568394002505e-15)"/>
  <path fill="#3F425D" d="M 141.738 73.323 L 178.52 73.323 C 180.32 98.84 179.076 125.097 179.045 150.698 C 179.029 164.623 179.104 178.547 179.098 192.473 C 179.092 205.467 179.228 219.515 176.503 232.271 C 173.648 245.63 167.668 258.315 158.663 268.651 C 148.368 280.467 122.413 294.562 122.413 294.562 C 122.736 295.849 107.451 298.499 101.243 297.507 L 9 297.507 L 9 259.424 C 16.666 258.719 24.57 258.988 32.273 258.979 C 44.399 258.962 56.525 258.951 68.65 259.023 C 86.949 259.131 104.571 261.433 121.329 252.155 C 129.862 247.429 135.042 239.039 137.687 229.874 C 140.103 221.507 140.53 212.136 140.79 203.462 C 141.181 190.522 140.846 177.524 140.787 164.581 C 140.691 143.627 140.635 122.674 140.605 101.724 C 140.593 92.911 139.342 81.727 141.738 73.323 Z" style="" transform="matrix(1, 0, 0, 1, 5.684341886080802e-14, 1.7763568394002505e-15)"/>
</svg>