<?xml version="1.0" encoding="UTF-8" standalone="no"?>
<!DOCTYPE svg PUBLIC "-//W3C//DTD SVG 1.0//EN" "http://www.w3.org/TR/2001/REC-SVG-20010904/DTD/svg10.dtd">
<svg xmlns="http://www.w3.org/2000/svg" version="1.0" viewBox="0.00 0.00 949.00 215.00">
<path fill="#2e4174" d="
  M 515.25 0.75
  L 946.69 0.76
  C 947.44 0.76 948.04 1.36 948.04 2.11
  L 947.99 198.90
  C 947.99 199.65 947.39 200.25 946.64 200.25
  L 475.39 200.25
  C 474.54 200.25 473.90 199.47 474.07 198.63
  L 513.93 1.83
  C 514.06 1.20 514.61 0.75 515.25 0.75
  Z
  M 692.58 58.49
  C 709.74 60.72 712.24 73.90 712.25 88.62
  C 712.26 104.74 712.26 120.86 712.23 136.99
  C 712.21 146.34 709.90 156.26 701.03 161.05
  C 698.63 162.34 695.03 163.20 692.03 164.42
  C 691.74 164.54 691.52 164.78 691.43 165.08
  C 690.82 167.18 691.24 169.12 691.25 170.76
  C 691.26 175.51 691.25 180.26 691.24 185.02
  C 691.23 186.69 691.57 188.15 693.60 187.80
  C 703.36 186.13 710.57 184.99 718.33 179.11
  C 727.17 172.40 735.34 160.03 735.73 148.43
  C 736.29 131.53 735.69 108.91 735.79 76.93
  C 735.86 56.83 721.13 41.33 702.56 36.00
  C 699.50 35.13 695.89 34.95 692.46 34.39
  C 691.84 34.29 691.27 34.77 691.26 35.41
  C 691.25 40.21 690.04 54.03 691.87 57.97
  C 692.00 58.26 692.27 58.45 692.58 58.49
  Z
  M 679.31 34.96
  C 660.10 34.41 642.36 49.59 637.62 67.91
  C 636.73 71.34 636.28 76.94 636.27 84.73
  C 636.24 104.42 636.24 124.12 636.27 143.81
  C 636.31 167.39 655.07 184.15 677.25 187.86
  C 678.26 188.03 679.30 187.83 680.35 187.26
  C 680.66 187.09 680.85 186.77 680.85 186.43
  L 680.85 165.99
  C 680.85 165.32 680.46 164.71 679.86 164.43
  C 677.39 163.27 674.22 162.50 672.12 161.45
  C 665.00 157.91 661.23 151.91 660.80 143.46
  C 660.67 140.72 660.04 138.08 659.99 135.49
  C 659.65 119.16 659.63 102.84 659.92 86.51
  C 659.96 84.65 660.57 82.08 660.70 79.52
  C 661.33 67.63 667.59 60.61 679.46 58.45
  C 679.77 58.39 680.03 58.19 680.16 57.90
  C 682.13 53.65 681.00 42.01 680.94 36.62
  C 680.93 35.55 680.38 34.99 679.31 34.96
  Z
  M 777.73 124.02
  C 788.78 123.98 799.87 124.25 811.04 123.50
  C 811.44 123.47 811.75 123.14 811.75 122.74
  L 811.75 101.78
  C 811.75 100.94 811.06 100.25 810.22 100.25
  L 778.53 100.25
  C 777.69 100.25 777.00 99.56 777.00 98.72
  L 777.00 59.76
  C 777.00 59.35 777.33 59.02 777.74 59.02
  L 829.52 58.96
  C 831.01 58.96 831.75 58.22 831.75 56.73
  L 831.75 36.77
  C 831.75 36.00 831.13 35.37 830.36 35.35
  C 805.05 34.85 779.75 34.84 754.44 35.33
  C 753.78 35.34 753.25 35.88 753.25 36.54
  L 753.25 185.50
  C 753.25 186.19 753.81 186.75 754.50 186.75
  L 775.72 186.75
  C 776.40 186.75 776.95 186.20 776.95 185.53
  L 777.02 124.72
  C 777.02 124.33 777.34 124.02 777.73 124.02
  Z
  M 874.60 59.05
  C 875.49 59.06 876.21 59.78 876.21 60.67
  L 876.25 185.12
  C 876.25 186.02 876.97 186.74 877.87 186.74
  L 898.13 186.79
  C 899.02 186.79 899.75 186.06 899.75 185.17
  L 899.76 60.56
  C 899.76 59.67 900.49 58.94 901.38 58.94
  L 933.31 58.98
  C 934.21 58.98 934.94 58.24 934.93 57.34
  L 934.74 36.69
  C 934.73 35.81 934.00 35.09 933.12 35.09
  L 842.87 35.04
  C 841.98 35.04 841.25 35.77 841.25 36.66
  L 841.25 57.27
  C 841.25 58.16 841.97 58.88 842.86 58.89
  L 874.60 59.05
  Z
  M 562.54 36.58
  C 546.97 40.55 534.74 50.84 530.75 66.48
  C 525.76 86.01 534.62 104.65 551.96 113.04
  C 565.36 119.53 602.13 122.48 599.08 145.08
  C 597.67 155.53 588.75 162.86 578.74 165.51
  C 578.33 165.62 578.04 166.00 578.05 166.42
  L 578.22 185.91
  C 578.23 186.37 578.46 186.61 578.92 186.63
  C 581.18 186.72 583.64 187.16 585.84 186.71
  C 596.88 184.46 605.76 179.14 612.49 170.75
  C 625.90 154.05 628.13 127.00 609.95 112.53
  C 597.62 102.71 579.89 97.46 564.69 92.35
  C 561.73 91.36 559.05 89.46 556.64 86.67
  C 550.85 79.95 551.72 70.55 557.76 64.38
  C 560.49 61.60 564.67 59.71 568.36 57.73
  C 568.72 57.54 568.90 57.24 568.90 56.83
  L 568.75 37.65
  C 568.74 37.20 568.53 36.90 568.12 36.73
  C 566.54 36.08 564.68 36.03 562.54 36.58
  Z
  M 579.09 58.20
  C 587.23 60.37 592.66 66.10 594.87 73.66
  C 595.13 74.54 596.06 75.03 596.93 74.76
  C 602.95 72.83 608.87 70.58 614.74 68.91
  C 616.79 68.33 617.46 66.94 616.74 64.75
  C 611.85 49.96 601.68 40.49 586.21 36.35
  C 584.45 35.88 581.99 36.00 578.84 36.70
  C 578.53 36.77 578.30 37.03 578.28 37.34
  C 577.77 44.05 577.82 50.75 578.45 57.45
  C 578.49 57.81 578.74 58.11 579.09 58.20
  Z
  M 528.05 153.33
  C 527.91 153.64 527.86 153.99 527.93 154.33
  C 531.85 173.28 549.06 185.98 567.78 187.60
  C 568.31 187.64 568.76 187.22 568.77 186.69
  L 568.83 167.10
  C 568.83 166.29 568.35 165.56 567.60 165.24
  C 563.34 163.41 558.39 160.81 555.18 157.38
  C 552.15 154.14 551.36 150.16 549.78 146.57
  C 549.37 145.62 548.30 145.14 547.31 145.46
  C 541.31 147.41 535.57 149.34 530.08 151.23
  C 528.88 151.65 528.55 152.29 528.05 153.33
  Z"
/>
<g fill="#e6c3a8">
<path d="
  M 494.54 16.96
  L 454.69 213.22
  C 454.60 213.69 454.18 214.03 453.70 214.03
  L 2.01 213.98
  C 1.45 213.98 1.00 213.53 1.00 212.97
  L 1.00 16.77
  C 1.00 16.21 1.45 15.76 2.01 15.76
  L 493.55 15.75
  C 494.19 15.75 494.67 16.34 494.54 16.96
  Z
  M 92.22 59.74
  L 81.31 60.30
  C 80.04 60.36 79.04 61.41 79.04 62.69
  L 78.98 101.10
  C 78.98 101.60 78.59 102.00 78.09 102.02
  L 69.66 102.33
  C 69.11 102.35 68.64 102.73 68.50 103.25
  C 66.69 109.94 72.95 108.93 76.88 109.04
  C 78.06 109.07 79.00 110.04 79.00 111.22
  L 79.00 162.06
  C 79.00 163.75 77.63 165.11 75.94 165.09
  L 62.74 164.97
  C 61.73 164.96 60.91 164.13 60.93 163.12
  C 61.11 153.83 61.07 144.60 60.82 135.43
  C 60.70 130.94 58.97 127.34 54.26 127.02
  C 50.57 126.77 43.02 126.83 31.59 127.20
  C 22.76 127.48 23.84 140.60 24.05 146.29
  C 24.09 147.34 23.26 148.22 22.21 148.24
  C 19.37 148.30 14.89 147.05 14.31 151.26
  C 13.82 154.78 15.48 155.76 18.75 155.75
  C 23.71 155.74 28.67 155.74 33.62 155.77
  C 33.83 155.77 34.03 155.83 34.20 155.95
  C 34.32 156.03 34.41 156.09 34.46 156.13
  C 34.87 156.43 34.63 157.08 34.12 157.04
  C 31.89 156.87 24.91 156.34 24.35 159.55
  C 23.55 164.11 24.54 168.70 25.08 173.29
  C 28.96 205.86 57.69 201.55 81.74 201.84
  C 82.77 201.86 83.88 201.03 85.10 201.07
  C 98.64 201.57 110.82 192.76 114.21 179.53
  C 115.39 174.92 115.98 171.32 115.99 168.75
  C 116.02 126.32 116.01 83.88 115.95 41.45
  C 115.95 35.49 116.13 30.81 109.96 29.30
  C 103.61 27.75 96.07 27.45 89.26 28.74
  C 83.51 29.83 79.24 28.57 79.09 36.29
  C 79.00 40.74 78.98 45.24 79.01 49.80
  C 79.01 50.12 78.83 50.41 78.54 50.55
  C 74.69 52.45 58.59 47.96 61.46 56.79
  C 61.57 57.12 61.79 57.33 62.13 57.42
  C 71.72 59.80 82.53 59.12 92.32 58.71
  C 92.37 58.71 92.41 58.74 92.43 58.79
  C 92.46 58.90 92.51 59.03 92.57 59.16
  C 92.69 59.42 92.51 59.73 92.22 59.74
  Z
  M 306.69 65.01
  C 312.07 65.00 317.57 64.99 323.20 64.96
  C 331.09 64.93 332.69 59.93 332.85 52.84
  C 333.01 45.92 333.68 38.32 331.24 31.71
  C 331.13 31.40 330.93 31.15 330.64 30.98
  C 325.48 27.86 319.62 28.02 313.25 28.06
  C 290.76 28.22 268.46 28.63 246.34 29.29
  C 244.35 29.35 242.70 30.83 242.40 32.79
  C 241.48 38.90 240.27 45.87 241.52 52.06
  C 242.14 55.10 242.21 57.42 242.28 60.25
  C 242.29 60.58 242.39 60.90 242.59 61.16
  C 246.74 66.67 260.99 65.17 267.10 64.83
  C 267.66 64.80 268.14 65.25 268.14 65.82
  L 268.04 103.16
  C 268.04 103.53 267.86 103.76 267.50 103.85
  C 265.91 104.24 264.49 104.39 263.24 104.30
  C 258.22 103.94 253.72 103.93 249.75 104.28
  C 245.73 104.63 245.20 109.40 246.93 111.34
  C 247.15 111.59 247.46 111.73 247.79 111.73
  C 259.20 111.84 270.60 111.80 282.00 111.62
  C 283.35 111.59 284.64 111.75 285.88 112.08
  C 286.09 112.14 286.23 112.34 286.20 112.56
  C 286.18 112.77 286.00 112.94 285.78 112.94
  L 269.99 113.14
  C 269.07 113.15 268.32 113.90 268.31 114.82
  L 268.12 133.96
  C 268.11 134.98 267.32 135.83 266.30 135.90
  L 259.21 136.43
  C 258.27 136.50 257.52 137.26 257.47 138.20
  C 256.94 147.14 271.78 137.35 268.87 149.68
  C 268.51 151.20 268.32 152.40 268.31 153.27
  C 268.11 167.66 267.13 182.97 269.39 197.18
  C 269.68 198.99 271.11 200.40 272.92 200.66
  C 275.41 201.01 277.78 201.74 280.38 201.76
  C 285.55 201.78 297.04 202.89 301.43 200.68
  C 307.03 197.85 306.29 187.79 305.87 182.06
  C 305.26 173.66 305.98 162.27 305.99 154.31
  C 306.00 124.73 306.01 95.19 306.00 65.70
  C 306.00 65.32 306.31 65.01 306.69 65.01
  Z
  M 387.00 107.26
  L 387.00 66.25
  C 387.00 65.57 387.54 65.02 388.22 65.01
  C 403.47 64.71 418.87 64.63 434.43 64.78
  C 437.30 64.80 439.44 63.78 440.30 61.08
  C 442.40 54.55 441.85 47.44 441.70 40.57
  C 441.46 29.16 436.48 28.01 426.25 28.00
  C 405.10 27.97 383.96 27.99 362.81 28.04
  C 359.68 28.05 356.48 28.86 353.19 30.49
  C 352.87 30.65 352.62 30.89 352.45 31.21
  C 350.64 34.53 349.83 38.09 350.02 41.89
  C 350.05 42.42 349.63 42.88 349.10 42.90
  L 338.49 43.28
  C 338.18 43.29 337.91 43.40 337.68 43.61
  C 335.65 45.54 335.25 47.73 336.47 50.19
  C 336.62 50.48 336.91 50.67 337.23 50.68
  C 348.07 51.14 358.91 51.24 369.76 50.99
  C 370.17 50.98 370.53 51.01 370.86 51.08
  C 371.09 51.13 371.25 51.34 371.23 51.57
  C 371.21 51.81 371.02 51.99 370.78 51.99
  L 353.06 52.16
  C 351.40 52.18 350.06 53.53 350.06 55.19
  L 349.97 109.31
  C 349.97 109.70 349.78 109.91 349.39 109.95
  C 344.53 110.39 337.94 108.22 339.38 116.09
  C 339.44 116.42 339.73 116.67 340.06 116.68
  L 349.34 117.10
  C 349.59 117.11 349.78 117.23 349.89 117.45
  C 350.57 118.83 349.93 120.28 349.99 121.34
  C 350.25 126.21 350.23 131.02 349.92 135.77
  C 349.87 136.59 349.43 137.01 348.62 137.04
  L 341.07 137.33
  C 339.88 137.38 339.26 138.00 339.21 139.20
  C 339.07 142.82 340.27 143.69 343.81 143.73
  C 350.19 143.80 356.57 143.85 362.96 143.88
  C 363.16 143.89 363.26 143.99 363.25 144.19
  C 363.25 144.28 363.25 144.37 363.25 144.46
  C 363.25 144.69 363.07 144.88 362.83 144.89
  L 352.44 145.28
  C 351.35 145.32 350.46 146.16 350.35 147.25
  C 350.26 148.20 350.22 149.38 350.21 150.81
  C 350.16 165.94 350.54 181.05 351.34 196.15
  C 351.62 201.43 358.73 201.75 362.62 201.75
  C 385.51 201.75 408.41 201.75 431.30 201.75
  C 434.04 201.75 439.80 200.82 440.50 197.50
  C 442.23 189.35 443.41 176.74 440.15 168.57
  C 440.03 168.28 439.82 168.04 439.55 167.88
  C 436.49 166.18 433.56 165.30 430.75 165.25
  C 417.02 164.97 402.87 164.90 388.28 165.05
  C 387.57 165.06 387.00 164.49 387.00 163.78
  L 387.00 145.78
  C 387.00 145.22 387.28 144.94 387.84 144.95
  C 399.83 145.08 411.36 145.04 422.43 144.83
  C 425.79 144.76 427.84 142.51 428.52 139.51
  C 429.97 133.18 432.26 115.65 426.42 110.71
  C 423.58 108.31 417.93 108.92 414.33 109.01
  C 411.77 109.07 409.41 108.25 406.89 108.25
  C 400.46 108.23 394.02 108.10 387.59 107.87
  C 387.26 107.86 387.00 107.59 387.00 107.26
  Z
  M 154.70 70.73
  C 149.79 71.69 144.10 70.08 139.06 72.65
  C 138.77 72.80 138.58 73.04 138.50 73.36
  C 137.67 76.82 138.32 80.91 138.28 83.41
  C 138.01 100.92 137.93 118.46 138.02 136.02
  C 138.02 136.37 137.78 136.68 137.44 136.77
  C 135.71 137.22 132.69 136.95 131.37 137.90
  C 129.96 138.91 129.80 141.79 131.32 142.69
  C 133.24 143.82 138.39 143.36 138.20 146.20
  C 137.84 151.54 138.40 156.83 137.98 162.09
  C 137.91 162.94 137.28 163.63 136.45 163.79
  C 134.40 164.18 132.33 164.35 130.24 164.28
  C 126.05 164.15 124.19 170.58 130.16 170.80
  C 139.53 171.13 148.92 171.12 158.32 170.76
  C 159.10 170.73 159.53 171.64 159.02 172.23
  C 158.52 172.80 157.76 173.06 156.74 173.03
  C 151.27 172.86 145.78 172.99 140.27 173.44
  C 139.90 173.47 139.59 173.72 139.49 174.08
  C 139.16 175.22 139.16 176.62 139.49 178.29
  C 144.97 205.90 176.13 201.73 196.52 201.77
  C 199.30 201.78 202.23 201.03 205.31 200.58
  C 219.54 198.50 227.51 185.87 228.95 172.42
  C 229.52 167.19 229.97 164.14 229.99 160.00
  C 230.08 129.29 229.97 98.57 229.67 67.86
  C 229.65 66.13 228.91 64.38 228.99 62.74
  C 229.56 51.10 224.76 38.73 214.39 32.94
  C 210.98 31.03 205.85 29.71 199.02 28.97
  C 187.37 27.71 176.02 27.88 164.99 29.48
  C 150.40 31.59 140.92 40.46 138.84 55.27
  C 138.54 57.40 138.23 59.35 137.90 61.13
  C 137.65 62.46 136.85 63.13 135.50 63.14
  L 124.51 63.26
  C 124.17 63.26 123.86 63.46 123.72 63.77
  C 122.94 65.51 122.30 69.80 125.50 69.75
  C 132.44 69.64 142.15 69.72 154.63 69.97
  C 154.83 69.97 154.99 70.13 155.01 70.32
  C 155.02 70.52 154.89 70.69 154.70 70.73
  Z"
/>
<path d="
  M 194.0927 162.6833
  C 194.10 164.52 192.61 166.01 190.7785 166.0091
  L 178.3985 166.0307
  C 176.56 166.03 175.08 164.55 175.0727 162.7165
  L 174.9073 67.9367
  C 174.90 66.10 176.39 64.61 178.2215 64.6109
  L 190.6015 64.5893
  C 192.44 64.59 193.92 66.07 193.9273 67.9035
  L 194.0927 162.6833
  Z"
/>
</g>
</svg>
